<mxfile host="Electron" modified="2023-06-05T11:51:19.227Z" agent="Mozilla/5.0 (Windows NT 10.0; Win64; x64) AppleWebKit/537.36 (KHTML, like Gecko) draw.io/21.2.8 Chrome/112.0.5615.165 Electron/24.2.0 Safari/537.36" etag="pjgKvVWMEq9Tq40YcID8" version="21.2.8" type="device" pages="2">
  <diagram name="ControlUnit" id="5OSL73vHE7T3cGWi182U">
    <mxGraphModel dx="1600" dy="478" grid="1" gridSize="10" guides="1" tooltips="1" connect="1" arrows="1" fold="1" page="1" pageScale="1" pageWidth="850" pageHeight="1100" math="0" shadow="0">
      <root>
        <mxCell id="0" />
        <mxCell id="1" parent="0" />
        <mxCell id="ZNJKmo3YXMTwLJoMVDTs-153" value="" style="rounded=1;whiteSpace=wrap;html=1;labelBackgroundColor=default;labelBorderColor=default;fontFamily=Helvetica;fontSize=11;fillColor=#dae8fc;strokeColor=#6c8ebf;" vertex="1" parent="1">
          <mxGeometry x="-280" y="400" width="860" height="730" as="geometry" />
        </mxCell>
        <mxCell id="ZNJKmo3YXMTwLJoMVDTs-136" style="edgeStyle=orthogonalEdgeStyle;shape=connector;rounded=0;orthogonalLoop=1;jettySize=auto;html=1;exitX=0.25;exitY=1;exitDx=0;exitDy=0;entryX=0.5;entryY=0;entryDx=0;entryDy=0;labelBackgroundColor=default;labelBorderColor=default;strokeColor=default;fontFamily=Helvetica;fontSize=11;fontColor=default;endArrow=classic;" edge="1" parent="1" source="ZNJKmo3YXMTwLJoMVDTs-28">
          <mxGeometry relative="1" as="geometry">
            <mxPoint x="150" y="400" as="targetPoint" />
          </mxGeometry>
        </mxCell>
        <mxCell id="ZNJKmo3YXMTwLJoMVDTs-52" value="" style="group" vertex="1" connectable="0" parent="1">
          <mxGeometry x="230" y="460" width="300" height="160" as="geometry" />
        </mxCell>
        <mxCell id="ZNJKmo3YXMTwLJoMVDTs-40" value="" style="rounded=1;whiteSpace=wrap;html=1;fontFamily=Helvetica;fontSize=11;fontColor=default;" vertex="1" parent="ZNJKmo3YXMTwLJoMVDTs-52">
          <mxGeometry width="300" height="160" as="geometry" />
        </mxCell>
        <mxCell id="ZNJKmo3YXMTwLJoMVDTs-41" value="Inherent" style="text;html=1;strokeColor=none;fillColor=none;align=center;verticalAlign=middle;whiteSpace=wrap;rounded=0;fontSize=11;fontFamily=Helvetica;fontColor=default;" vertex="1" parent="ZNJKmo3YXMTwLJoMVDTs-52">
          <mxGeometry y="10" width="60" height="30" as="geometry" />
        </mxCell>
        <mxCell id="ZNJKmo3YXMTwLJoMVDTs-42" value="opcode" style="rhombus;whiteSpace=wrap;html=1;fontFamily=Helvetica;fontSize=11;fontColor=default;" vertex="1" parent="ZNJKmo3YXMTwLJoMVDTs-52">
          <mxGeometry x="110" y="20" width="80" height="80" as="geometry" />
        </mxCell>
        <mxCell id="ZNJKmo3YXMTwLJoMVDTs-43" value="clear the zero reg" style="rounded=1;whiteSpace=wrap;html=1;fontFamily=Helvetica;fontSize=11;fontColor=default;" vertex="1" parent="ZNJKmo3YXMTwLJoMVDTs-52">
          <mxGeometry x="10" y="90" width="120" height="60" as="geometry" />
        </mxCell>
        <mxCell id="ZNJKmo3YXMTwLJoMVDTs-45" style="edgeStyle=orthogonalEdgeStyle;shape=connector;rounded=0;orthogonalLoop=1;jettySize=auto;html=1;exitX=0;exitY=0.5;exitDx=0;exitDy=0;labelBackgroundColor=default;labelBorderColor=default;strokeColor=default;fontFamily=Helvetica;fontSize=11;fontColor=default;endArrow=classic;" edge="1" parent="ZNJKmo3YXMTwLJoMVDTs-52" source="ZNJKmo3YXMTwLJoMVDTs-42" target="ZNJKmo3YXMTwLJoMVDTs-43">
          <mxGeometry relative="1" as="geometry" />
        </mxCell>
        <mxCell id="ZNJKmo3YXMTwLJoMVDTs-48" value="&amp;nbsp;clfz&amp;nbsp;" style="edgeLabel;html=1;align=center;verticalAlign=middle;resizable=0;points=[];fontSize=11;fontFamily=Helvetica;fontColor=default;labelBorderColor=default;" vertex="1" connectable="0" parent="ZNJKmo3YXMTwLJoMVDTs-45">
          <mxGeometry x="-0.0952" relative="1" as="geometry">
            <mxPoint x="-8" as="offset" />
          </mxGeometry>
        </mxCell>
        <mxCell id="ZNJKmo3YXMTwLJoMVDTs-44" value="no operation" style="rounded=1;whiteSpace=wrap;html=1;fontFamily=Helvetica;fontSize=11;fontColor=default;" vertex="1" parent="ZNJKmo3YXMTwLJoMVDTs-52">
          <mxGeometry x="170" y="90" width="120" height="60" as="geometry" />
        </mxCell>
        <mxCell id="ZNJKmo3YXMTwLJoMVDTs-49" value="&amp;nbsp;noop&amp;nbsp;" style="edgeStyle=orthogonalEdgeStyle;shape=connector;rounded=0;orthogonalLoop=1;jettySize=auto;html=1;exitX=1;exitY=0.5;exitDx=0;exitDy=0;entryX=0.5;entryY=0;entryDx=0;entryDy=0;labelBackgroundColor=default;labelBorderColor=default;strokeColor=default;fontFamily=Helvetica;fontSize=11;fontColor=default;endArrow=classic;" edge="1" parent="ZNJKmo3YXMTwLJoMVDTs-52" source="ZNJKmo3YXMTwLJoMVDTs-42" target="ZNJKmo3YXMTwLJoMVDTs-44">
          <mxGeometry x="0.1429" relative="1" as="geometry">
            <mxPoint as="offset" />
          </mxGeometry>
        </mxCell>
        <mxCell id="ZNJKmo3YXMTwLJoMVDTs-51" style="edgeStyle=orthogonalEdgeStyle;shape=connector;rounded=0;orthogonalLoop=1;jettySize=auto;html=1;exitX=0.5;exitY=0;exitDx=0;exitDy=0;entryX=0.5;entryY=0;entryDx=0;entryDy=0;labelBackgroundColor=default;labelBorderColor=default;strokeColor=default;fontFamily=Helvetica;fontSize=11;fontColor=default;endArrow=classic;" edge="1" parent="ZNJKmo3YXMTwLJoMVDTs-52" source="ZNJKmo3YXMTwLJoMVDTs-40" target="ZNJKmo3YXMTwLJoMVDTs-42">
          <mxGeometry relative="1" as="geometry" />
        </mxCell>
        <mxCell id="ZNJKmo3YXMTwLJoMVDTs-77" value="" style="group" vertex="1" connectable="0" parent="1">
          <mxGeometry x="-260" y="470" width="400" height="200" as="geometry" />
        </mxCell>
        <mxCell id="ZNJKmo3YXMTwLJoMVDTs-54" value="" style="rounded=1;whiteSpace=wrap;html=1;fontFamily=Helvetica;fontSize=11;fontColor=default;" vertex="1" parent="ZNJKmo3YXMTwLJoMVDTs-77">
          <mxGeometry width="400" height="200" as="geometry" />
        </mxCell>
        <mxCell id="ZNJKmo3YXMTwLJoMVDTs-55" value="Direct" style="text;html=1;strokeColor=none;fillColor=none;align=center;verticalAlign=middle;whiteSpace=wrap;rounded=0;fontSize=11;fontFamily=Helvetica;fontColor=default;" vertex="1" parent="ZNJKmo3YXMTwLJoMVDTs-77">
          <mxGeometry y="10" width="60" height="30" as="geometry" />
        </mxCell>
        <mxCell id="ZNJKmo3YXMTwLJoMVDTs-56" value="opcode" style="rhombus;whiteSpace=wrap;html=1;fontFamily=Helvetica;fontSize=11;fontColor=default;" vertex="1" parent="ZNJKmo3YXMTwLJoMVDTs-77">
          <mxGeometry x="160" y="20" width="80" height="80" as="geometry" />
        </mxCell>
        <mxCell id="ZNJKmo3YXMTwLJoMVDTs-57" value="sets the zero reg to 1" style="rounded=1;whiteSpace=wrap;html=1;fontFamily=Helvetica;fontSize=11;fontColor=default;" vertex="1" parent="ZNJKmo3YXMTwLJoMVDTs-77">
          <mxGeometry x="10" y="130" width="120" height="60" as="geometry" />
        </mxCell>
        <mxCell id="ZNJKmo3YXMTwLJoMVDTs-58" style="edgeStyle=orthogonalEdgeStyle;shape=connector;rounded=0;orthogonalLoop=1;jettySize=auto;html=1;exitX=0;exitY=0.5;exitDx=0;exitDy=0;labelBackgroundColor=default;labelBorderColor=default;strokeColor=default;fontFamily=Helvetica;fontSize=11;fontColor=default;endArrow=classic;entryX=0.5;entryY=0;entryDx=0;entryDy=0;" edge="1" parent="ZNJKmo3YXMTwLJoMVDTs-77" source="ZNJKmo3YXMTwLJoMVDTs-56" target="ZNJKmo3YXMTwLJoMVDTs-57">
          <mxGeometry relative="1" as="geometry" />
        </mxCell>
        <mxCell id="ZNJKmo3YXMTwLJoMVDTs-59" value="&amp;nbsp;ldr&amp;nbsp;" style="edgeLabel;html=1;align=center;verticalAlign=middle;resizable=0;points=[];fontSize=11;fontFamily=Helvetica;fontColor=default;labelBorderColor=default;" vertex="1" connectable="0" parent="ZNJKmo3YXMTwLJoMVDTs-58">
          <mxGeometry x="-0.0952" relative="1" as="geometry">
            <mxPoint x="48" as="offset" />
          </mxGeometry>
        </mxCell>
        <mxCell id="ZNJKmo3YXMTwLJoMVDTs-60" value="memory block to write to data mem from PC" style="rounded=1;whiteSpace=wrap;html=1;fontFamily=Helvetica;fontSize=11;fontColor=default;" vertex="1" parent="ZNJKmo3YXMTwLJoMVDTs-77">
          <mxGeometry x="270" y="130" width="120" height="60" as="geometry" />
        </mxCell>
        <mxCell id="ZNJKmo3YXMTwLJoMVDTs-61" value="&amp;nbsp;strpc&amp;nbsp;" style="edgeStyle=orthogonalEdgeStyle;shape=connector;rounded=0;orthogonalLoop=1;jettySize=auto;html=1;exitX=1;exitY=0.5;exitDx=0;exitDy=0;entryX=0.5;entryY=0;entryDx=0;entryDy=0;labelBackgroundColor=default;labelBorderColor=default;strokeColor=default;fontFamily=Helvetica;fontSize=11;fontColor=default;endArrow=classic;" edge="1" parent="ZNJKmo3YXMTwLJoMVDTs-77" source="ZNJKmo3YXMTwLJoMVDTs-56" target="ZNJKmo3YXMTwLJoMVDTs-60">
          <mxGeometry x="-0.6" relative="1" as="geometry">
            <mxPoint as="offset" />
          </mxGeometry>
        </mxCell>
        <mxCell id="ZNJKmo3YXMTwLJoMVDTs-62" style="edgeStyle=orthogonalEdgeStyle;shape=connector;rounded=0;orthogonalLoop=1;jettySize=auto;html=1;exitX=0.5;exitY=0;exitDx=0;exitDy=0;entryX=0.5;entryY=0;entryDx=0;entryDy=0;labelBackgroundColor=default;labelBorderColor=default;strokeColor=default;fontFamily=Helvetica;fontSize=11;fontColor=default;endArrow=classic;" edge="1" parent="ZNJKmo3YXMTwLJoMVDTs-77" source="ZNJKmo3YXMTwLJoMVDTs-54" target="ZNJKmo3YXMTwLJoMVDTs-56">
          <mxGeometry relative="1" as="geometry" />
        </mxCell>
        <mxCell id="ZNJKmo3YXMTwLJoMVDTs-64" value="memory block to write to data mem from IR" style="rounded=1;whiteSpace=wrap;html=1;fontFamily=Helvetica;fontSize=11;fontColor=default;" vertex="1" parent="ZNJKmo3YXMTwLJoMVDTs-77">
          <mxGeometry x="140" y="130" width="120" height="60" as="geometry" />
        </mxCell>
        <mxCell id="ZNJKmo3YXMTwLJoMVDTs-65" value="&amp;nbsp;str&amp;nbsp;" style="edgeStyle=orthogonalEdgeStyle;shape=connector;rounded=0;orthogonalLoop=1;jettySize=auto;html=1;exitX=0.5;exitY=1;exitDx=0;exitDy=0;entryX=0.5;entryY=0;entryDx=0;entryDy=0;labelBackgroundColor=default;labelBorderColor=default;strokeColor=default;fontFamily=Helvetica;fontSize=11;fontColor=default;endArrow=classic;" edge="1" parent="ZNJKmo3YXMTwLJoMVDTs-77" source="ZNJKmo3YXMTwLJoMVDTs-56" target="ZNJKmo3YXMTwLJoMVDTs-64">
          <mxGeometry x="-0.3333" relative="1" as="geometry">
            <mxPoint as="offset" />
          </mxGeometry>
        </mxCell>
        <mxCell id="ZNJKmo3YXMTwLJoMVDTs-131" value="" style="group" vertex="1" connectable="0" parent="1">
          <mxGeometry x="160" y="650" width="420" height="480" as="geometry" />
        </mxCell>
        <mxCell id="ZNJKmo3YXMTwLJoMVDTs-66" value="" style="rounded=1;whiteSpace=wrap;html=1;fontFamily=Helvetica;fontSize=11;fontColor=default;" vertex="1" parent="ZNJKmo3YXMTwLJoMVDTs-131">
          <mxGeometry width="400" height="460" as="geometry" />
        </mxCell>
        <mxCell id="ZNJKmo3YXMTwLJoMVDTs-67" value="Immediate" style="text;html=1;strokeColor=none;fillColor=none;align=center;verticalAlign=middle;whiteSpace=wrap;rounded=0;fontSize=11;fontFamily=Helvetica;fontColor=default;" vertex="1" parent="ZNJKmo3YXMTwLJoMVDTs-131">
          <mxGeometry x="20" y="10" width="60" height="30" as="geometry" />
        </mxCell>
        <mxCell id="ZNJKmo3YXMTwLJoMVDTs-69" value="opcode" style="rhombus;whiteSpace=wrap;html=1;fontFamily=Helvetica;fontSize=11;fontColor=default;" vertex="1" parent="ZNJKmo3YXMTwLJoMVDTs-131">
          <mxGeometry x="160" y="20" width="80" height="80" as="geometry" />
        </mxCell>
        <mxCell id="ZNJKmo3YXMTwLJoMVDTs-70" value="ALU to ADD using IR&lt;br&gt;RF to receive aluout" style="rounded=1;whiteSpace=wrap;html=1;fontFamily=Helvetica;fontSize=11;fontColor=default;" vertex="1" parent="ZNJKmo3YXMTwLJoMVDTs-131">
          <mxGeometry x="10" y="60" width="120" height="60" as="geometry" />
        </mxCell>
        <mxCell id="ZNJKmo3YXMTwLJoMVDTs-81" value="&amp;nbsp;add&amp;nbsp;" style="edgeStyle=orthogonalEdgeStyle;shape=connector;rounded=0;orthogonalLoop=1;jettySize=auto;html=1;exitX=0;exitY=1;exitDx=0;exitDy=0;entryX=1;entryY=0.5;entryDx=0;entryDy=0;labelBackgroundColor=default;labelBorderColor=default;strokeColor=default;fontFamily=Helvetica;fontSize=11;fontColor=default;endArrow=classic;" edge="1" parent="ZNJKmo3YXMTwLJoMVDTs-131" source="ZNJKmo3YXMTwLJoMVDTs-69" target="ZNJKmo3YXMTwLJoMVDTs-70">
          <mxGeometry relative="1" as="geometry">
            <Array as="points">
              <mxPoint x="180" y="90" />
            </Array>
            <mxPoint as="offset" />
          </mxGeometry>
        </mxCell>
        <mxCell id="ZNJKmo3YXMTwLJoMVDTs-75" style="edgeStyle=orthogonalEdgeStyle;shape=connector;rounded=0;orthogonalLoop=1;jettySize=auto;html=1;exitX=0.5;exitY=0;exitDx=0;exitDy=0;entryX=0.5;entryY=0;entryDx=0;entryDy=0;labelBackgroundColor=default;labelBorderColor=default;strokeColor=default;fontFamily=Helvetica;fontSize=11;fontColor=default;endArrow=classic;" edge="1" parent="ZNJKmo3YXMTwLJoMVDTs-131" source="ZNJKmo3YXMTwLJoMVDTs-66" target="ZNJKmo3YXMTwLJoMVDTs-69">
          <mxGeometry relative="1" as="geometry" />
        </mxCell>
        <mxCell id="ZNJKmo3YXMTwLJoMVDTs-76" value="operand loaded into RF" style="rounded=1;whiteSpace=wrap;html=1;fontFamily=Helvetica;fontSize=11;fontColor=default;" vertex="1" parent="ZNJKmo3YXMTwLJoMVDTs-131">
          <mxGeometry x="140" y="390" width="120" height="60" as="geometry" />
        </mxCell>
        <mxCell id="ZNJKmo3YXMTwLJoMVDTs-68" value="&amp;nbsp;ldr&amp;nbsp;" style="edgeStyle=orthogonalEdgeStyle;shape=connector;rounded=0;orthogonalLoop=1;jettySize=auto;html=1;exitX=0.5;exitY=1;exitDx=0;exitDy=0;entryX=0.5;entryY=0;entryDx=0;entryDy=0;labelBackgroundColor=default;labelBorderColor=default;strokeColor=default;fontFamily=Helvetica;fontSize=11;fontColor=default;endArrow=classic;" edge="1" parent="ZNJKmo3YXMTwLJoMVDTs-131" source="ZNJKmo3YXMTwLJoMVDTs-69" target="ZNJKmo3YXMTwLJoMVDTs-76">
          <mxGeometry x="0.7857" relative="1" as="geometry">
            <mxPoint as="offset" />
          </mxGeometry>
        </mxCell>
        <mxCell id="ZNJKmo3YXMTwLJoMVDTs-78" value="ALU to SUB using IR&lt;br&gt;RF to receive aluout" style="rounded=1;whiteSpace=wrap;html=1;fontFamily=Helvetica;fontSize=11;fontColor=default;" vertex="1" parent="ZNJKmo3YXMTwLJoMVDTs-131">
          <mxGeometry x="10" y="130" width="120" height="60" as="geometry" />
        </mxCell>
        <mxCell id="ZNJKmo3YXMTwLJoMVDTs-82" value="&amp;nbsp;subi&amp;nbsp;" style="edgeStyle=orthogonalEdgeStyle;shape=connector;rounded=0;orthogonalLoop=1;jettySize=auto;html=1;exitX=0;exitY=1;exitDx=0;exitDy=0;entryX=1;entryY=0.5;entryDx=0;entryDy=0;labelBackgroundColor=default;labelBorderColor=default;strokeColor=default;fontFamily=Helvetica;fontSize=11;fontColor=default;endArrow=classic;" edge="1" parent="ZNJKmo3YXMTwLJoMVDTs-131" source="ZNJKmo3YXMTwLJoMVDTs-69" target="ZNJKmo3YXMTwLJoMVDTs-78">
          <mxGeometry x="0.5385" relative="1" as="geometry">
            <Array as="points">
              <mxPoint x="180" y="160" />
            </Array>
            <mxPoint as="offset" />
          </mxGeometry>
        </mxCell>
        <mxCell id="ZNJKmo3YXMTwLJoMVDTs-79" value="ALU to SUB using IR" style="rounded=1;whiteSpace=wrap;html=1;fontFamily=Helvetica;fontSize=11;fontColor=default;" vertex="1" parent="ZNJKmo3YXMTwLJoMVDTs-131">
          <mxGeometry x="10" y="200" width="120" height="60" as="geometry" />
        </mxCell>
        <mxCell id="ZNJKmo3YXMTwLJoMVDTs-83" value="&amp;nbsp;subv&amp;nbsp;" style="edgeStyle=orthogonalEdgeStyle;shape=connector;rounded=0;orthogonalLoop=1;jettySize=auto;html=1;exitX=0;exitY=1;exitDx=0;exitDy=0;entryX=1;entryY=0.5;entryDx=0;entryDy=0;labelBackgroundColor=default;labelBorderColor=default;strokeColor=default;fontFamily=Helvetica;fontSize=11;fontColor=default;endArrow=classic;" edge="1" parent="ZNJKmo3YXMTwLJoMVDTs-131" source="ZNJKmo3YXMTwLJoMVDTs-69" target="ZNJKmo3YXMTwLJoMVDTs-79">
          <mxGeometry x="0.7" relative="1" as="geometry">
            <Array as="points">
              <mxPoint x="180" y="230" />
            </Array>
            <mxPoint as="offset" />
          </mxGeometry>
        </mxCell>
        <mxCell id="ZNJKmo3YXMTwLJoMVDTs-80" value="ALU to ADD using IR" style="rounded=1;whiteSpace=wrap;html=1;fontFamily=Helvetica;fontSize=11;fontColor=default;" vertex="1" parent="ZNJKmo3YXMTwLJoMVDTs-131">
          <mxGeometry x="10" y="270" width="120" height="60" as="geometry" />
        </mxCell>
        <mxCell id="ZNJKmo3YXMTwLJoMVDTs-84" value="&amp;nbsp;andd&amp;nbsp;" style="edgeStyle=orthogonalEdgeStyle;shape=connector;rounded=0;orthogonalLoop=1;jettySize=auto;html=1;exitX=0;exitY=1;exitDx=0;exitDy=0;entryX=1;entryY=0.5;entryDx=0;entryDy=0;labelBackgroundColor=default;labelBorderColor=default;strokeColor=default;fontFamily=Helvetica;fontSize=11;fontColor=default;endArrow=classic;" edge="1" parent="ZNJKmo3YXMTwLJoMVDTs-131" source="ZNJKmo3YXMTwLJoMVDTs-69" target="ZNJKmo3YXMTwLJoMVDTs-80">
          <mxGeometry x="0.7778" relative="1" as="geometry">
            <Array as="points">
              <mxPoint x="180" y="300" />
            </Array>
            <mxPoint as="offset" />
          </mxGeometry>
        </mxCell>
        <mxCell id="ZNJKmo3YXMTwLJoMVDTs-93" value="if&lt;br&gt;zero flag = 1&lt;br&gt;then&lt;br&gt;PC set from IR" style="rounded=1;whiteSpace=wrap;html=1;fontFamily=Helvetica;fontSize=11;fontColor=default;" vertex="1" parent="ZNJKmo3YXMTwLJoMVDTs-131">
          <mxGeometry x="270" y="60" width="120" height="60" as="geometry" />
        </mxCell>
        <mxCell id="ZNJKmo3YXMTwLJoMVDTs-98" value="&amp;nbsp;sz&amp;nbsp;" style="edgeStyle=orthogonalEdgeStyle;shape=connector;rounded=0;orthogonalLoop=1;jettySize=auto;html=1;exitX=1;exitY=1;exitDx=0;exitDy=0;entryX=0;entryY=0.5;entryDx=0;entryDy=0;labelBackgroundColor=default;labelBorderColor=default;strokeColor=default;fontFamily=Helvetica;fontSize=11;fontColor=default;endArrow=classic;" edge="1" parent="ZNJKmo3YXMTwLJoMVDTs-131" source="ZNJKmo3YXMTwLJoMVDTs-69" target="ZNJKmo3YXMTwLJoMVDTs-93">
          <mxGeometry relative="1" as="geometry">
            <Array as="points">
              <mxPoint x="220" y="90" />
            </Array>
            <mxPoint as="offset" />
          </mxGeometry>
        </mxCell>
        <mxCell id="ZNJKmo3YXMTwLJoMVDTs-94" value="sets DPCR from IR" style="rounded=1;whiteSpace=wrap;html=1;fontFamily=Helvetica;fontSize=11;fontColor=default;" vertex="1" parent="ZNJKmo3YXMTwLJoMVDTs-131">
          <mxGeometry x="270" y="130" width="120" height="60" as="geometry" />
        </mxCell>
        <mxCell id="ZNJKmo3YXMTwLJoMVDTs-95" value="if&lt;br&gt;operand = 0&lt;br&gt;then&lt;br&gt;PC set from IR" style="rounded=1;whiteSpace=wrap;html=1;fontFamily=Helvetica;fontSize=11;fontColor=default;" vertex="1" parent="ZNJKmo3YXMTwLJoMVDTs-131">
          <mxGeometry x="270" y="200" width="120" height="60" as="geometry" />
        </mxCell>
        <mxCell id="ZNJKmo3YXMTwLJoMVDTs-96" value="PC counter set from IR" style="rounded=1;whiteSpace=wrap;html=1;fontFamily=Helvetica;fontSize=11;fontColor=default;" vertex="1" parent="ZNJKmo3YXMTwLJoMVDTs-131">
          <mxGeometry x="270" y="270" width="120" height="60" as="geometry" />
        </mxCell>
        <mxCell id="ZNJKmo3YXMTwLJoMVDTs-101" value="&amp;nbsp;jmp&amp;nbsp;" style="edgeStyle=orthogonalEdgeStyle;shape=connector;rounded=0;orthogonalLoop=1;jettySize=auto;html=1;exitX=1;exitY=1;exitDx=0;exitDy=0;entryX=0;entryY=0.5;entryDx=0;entryDy=0;labelBackgroundColor=default;labelBorderColor=default;strokeColor=default;fontFamily=Helvetica;fontSize=11;fontColor=default;endArrow=classic;" edge="1" parent="ZNJKmo3YXMTwLJoMVDTs-131" source="ZNJKmo3YXMTwLJoMVDTs-69" target="ZNJKmo3YXMTwLJoMVDTs-96">
          <mxGeometry x="0.7778" relative="1" as="geometry">
            <Array as="points">
              <mxPoint x="220" y="300" />
            </Array>
            <mxPoint as="offset" />
          </mxGeometry>
        </mxCell>
        <mxCell id="ZNJKmo3YXMTwLJoMVDTs-125" value="ALU to OR using IR" style="rounded=1;whiteSpace=wrap;html=1;fontFamily=Helvetica;fontSize=11;fontColor=default;" vertex="1" parent="ZNJKmo3YXMTwLJoMVDTs-131">
          <mxGeometry x="10" y="340" width="120" height="60" as="geometry" />
        </mxCell>
        <mxCell id="ZNJKmo3YXMTwLJoMVDTs-126" value="operand loaded into memory" style="rounded=1;whiteSpace=wrap;html=1;fontFamily=Helvetica;fontSize=11;fontColor=default;" vertex="1" parent="ZNJKmo3YXMTwLJoMVDTs-131">
          <mxGeometry x="270" y="340" width="120" height="60" as="geometry" />
        </mxCell>
        <mxCell id="ZNJKmo3YXMTwLJoMVDTs-127" value="&amp;nbsp;orr&amp;nbsp;" style="edgeStyle=orthogonalEdgeStyle;shape=connector;rounded=0;orthogonalLoop=1;jettySize=auto;html=1;exitX=0;exitY=1;exitDx=0;exitDy=0;entryX=1;entryY=0.5;entryDx=0;entryDy=0;labelBackgroundColor=default;labelBorderColor=default;strokeColor=default;fontFamily=Helvetica;fontSize=11;fontColor=default;endArrow=classic;" edge="1" parent="ZNJKmo3YXMTwLJoMVDTs-131" source="ZNJKmo3YXMTwLJoMVDTs-69" target="ZNJKmo3YXMTwLJoMVDTs-125">
          <mxGeometry x="0.8235" relative="1" as="geometry">
            <Array as="points">
              <mxPoint x="180" y="370" />
            </Array>
            <mxPoint as="offset" />
          </mxGeometry>
        </mxCell>
        <mxCell id="ZNJKmo3YXMTwLJoMVDTs-128" value="&amp;nbsp;str&amp;nbsp;" style="edgeStyle=orthogonalEdgeStyle;shape=connector;rounded=0;orthogonalLoop=1;jettySize=auto;html=1;exitX=1;exitY=1;exitDx=0;exitDy=0;entryX=0;entryY=0.5;entryDx=0;entryDy=0;labelBackgroundColor=default;labelBorderColor=default;strokeColor=default;fontFamily=Helvetica;fontSize=11;fontColor=default;endArrow=classic;" edge="1" parent="ZNJKmo3YXMTwLJoMVDTs-131" source="ZNJKmo3YXMTwLJoMVDTs-69" target="ZNJKmo3YXMTwLJoMVDTs-126">
          <mxGeometry x="0.8235" relative="1" as="geometry">
            <Array as="points">
              <mxPoint x="220" y="370" />
            </Array>
            <mxPoint as="offset" />
          </mxGeometry>
        </mxCell>
        <mxCell id="ZNJKmo3YXMTwLJoMVDTs-100" value="&amp;nbsp;present&amp;nbsp;" style="edgeStyle=orthogonalEdgeStyle;shape=connector;rounded=0;orthogonalLoop=1;jettySize=auto;html=1;exitX=1;exitY=1;exitDx=0;exitDy=0;entryX=0;entryY=0.5;entryDx=0;entryDy=0;labelBackgroundColor=default;labelBorderColor=default;strokeColor=default;fontFamily=Helvetica;fontSize=11;fontColor=default;endArrow=classic;" edge="1" parent="ZNJKmo3YXMTwLJoMVDTs-131" source="ZNJKmo3YXMTwLJoMVDTs-69" target="ZNJKmo3YXMTwLJoMVDTs-95">
          <mxGeometry x="0.6" relative="1" as="geometry">
            <Array as="points">
              <mxPoint x="220" y="230" />
            </Array>
            <mxPoint as="offset" />
          </mxGeometry>
        </mxCell>
        <mxCell id="ZNJKmo3YXMTwLJoMVDTs-99" value="&amp;nbsp;datacall&amp;nbsp;" style="edgeStyle=orthogonalEdgeStyle;shape=connector;rounded=0;orthogonalLoop=1;jettySize=auto;html=1;exitX=1;exitY=1;exitDx=0;exitDy=0;entryX=0;entryY=0.5;entryDx=0;entryDy=0;labelBackgroundColor=default;labelBorderColor=default;strokeColor=default;fontFamily=Helvetica;fontSize=11;fontColor=default;endArrow=classic;" edge="1" parent="ZNJKmo3YXMTwLJoMVDTs-131" source="ZNJKmo3YXMTwLJoMVDTs-69" target="ZNJKmo3YXMTwLJoMVDTs-94">
          <mxGeometry x="0.3846" relative="1" as="geometry">
            <Array as="points">
              <mxPoint x="220" y="160" />
            </Array>
            <mxPoint as="offset" />
          </mxGeometry>
        </mxCell>
        <mxCell id="ZNJKmo3YXMTwLJoMVDTs-132" value="" style="group" vertex="1" connectable="0" parent="1">
          <mxGeometry x="-260" y="710" width="400" height="380" as="geometry" />
        </mxCell>
        <mxCell id="ZNJKmo3YXMTwLJoMVDTs-103" value="" style="rounded=1;whiteSpace=wrap;html=1;fontFamily=Helvetica;fontSize=11;fontColor=default;" vertex="1" parent="ZNJKmo3YXMTwLJoMVDTs-132">
          <mxGeometry width="400" height="380" as="geometry" />
        </mxCell>
        <mxCell id="ZNJKmo3YXMTwLJoMVDTs-104" value="Indirect" style="text;html=1;strokeColor=none;fillColor=none;align=center;verticalAlign=middle;whiteSpace=wrap;rounded=0;fontSize=11;fontFamily=Helvetica;fontColor=default;" vertex="1" parent="ZNJKmo3YXMTwLJoMVDTs-132">
          <mxGeometry x="10" y="10" width="60" height="30" as="geometry" />
        </mxCell>
        <mxCell id="ZNJKmo3YXMTwLJoMVDTs-113" value="opcode" style="rhombus;whiteSpace=wrap;html=1;fontFamily=Helvetica;fontSize=11;fontColor=default;" vertex="1" parent="ZNJKmo3YXMTwLJoMVDTs-132">
          <mxGeometry x="160" y="20" width="80" height="80" as="geometry" />
        </mxCell>
        <mxCell id="ZNJKmo3YXMTwLJoMVDTs-114" value="ALU to ADD from RF&lt;br&gt;RF to receive aluout" style="rounded=1;whiteSpace=wrap;html=1;fontFamily=Helvetica;fontSize=11;fontColor=default;" vertex="1" parent="ZNJKmo3YXMTwLJoMVDTs-132">
          <mxGeometry x="10" y="60" width="120" height="60" as="geometry" />
        </mxCell>
        <mxCell id="ZNJKmo3YXMTwLJoMVDTs-106" value="&amp;nbsp;add&amp;nbsp;" style="edgeStyle=orthogonalEdgeStyle;shape=connector;rounded=0;orthogonalLoop=1;jettySize=auto;html=1;exitX=0;exitY=1;exitDx=0;exitDy=0;entryX=1;entryY=0.5;entryDx=0;entryDy=0;labelBackgroundColor=default;labelBorderColor=default;strokeColor=default;fontFamily=Helvetica;fontSize=11;fontColor=default;endArrow=classic;" edge="1" parent="ZNJKmo3YXMTwLJoMVDTs-132" source="ZNJKmo3YXMTwLJoMVDTs-113" target="ZNJKmo3YXMTwLJoMVDTs-114">
          <mxGeometry relative="1" as="geometry">
            <Array as="points">
              <mxPoint x="180" y="90" />
            </Array>
            <mxPoint as="offset" />
          </mxGeometry>
        </mxCell>
        <mxCell id="ZNJKmo3YXMTwLJoMVDTs-115" style="edgeStyle=orthogonalEdgeStyle;shape=connector;rounded=0;orthogonalLoop=1;jettySize=auto;html=1;exitX=0.5;exitY=0;exitDx=0;exitDy=0;entryX=0.5;entryY=0;entryDx=0;entryDy=0;labelBackgroundColor=default;labelBorderColor=default;strokeColor=default;fontFamily=Helvetica;fontSize=11;fontColor=default;endArrow=classic;" edge="1" parent="ZNJKmo3YXMTwLJoMVDTs-132" source="ZNJKmo3YXMTwLJoMVDTs-103" target="ZNJKmo3YXMTwLJoMVDTs-113">
          <mxGeometry relative="1" as="geometry" />
        </mxCell>
        <mxCell id="ZNJKmo3YXMTwLJoMVDTs-116" value="write to memory from IR" style="rounded=1;whiteSpace=wrap;html=1;fontFamily=Helvetica;fontSize=11;fontColor=default;" vertex="1" parent="ZNJKmo3YXMTwLJoMVDTs-132">
          <mxGeometry x="140" y="310" width="120" height="60" as="geometry" />
        </mxCell>
        <mxCell id="ZNJKmo3YXMTwLJoMVDTs-105" value="&amp;nbsp;str&amp;nbsp;" style="edgeStyle=orthogonalEdgeStyle;shape=connector;rounded=0;orthogonalLoop=1;jettySize=auto;html=1;exitX=0.5;exitY=1;exitDx=0;exitDy=0;entryX=0.5;entryY=0;entryDx=0;entryDy=0;labelBackgroundColor=default;labelBorderColor=default;strokeColor=default;fontFamily=Helvetica;fontSize=11;fontColor=default;endArrow=classic;" edge="1" parent="ZNJKmo3YXMTwLJoMVDTs-132" source="ZNJKmo3YXMTwLJoMVDTs-113" target="ZNJKmo3YXMTwLJoMVDTs-116">
          <mxGeometry x="0.7857" relative="1" as="geometry">
            <mxPoint as="offset" />
          </mxGeometry>
        </mxCell>
        <mxCell id="ZNJKmo3YXMTwLJoMVDTs-117" value="ALU to AND&amp;nbsp;from RF&lt;br&gt;RF to receive aluout" style="rounded=1;whiteSpace=wrap;html=1;fontFamily=Helvetica;fontSize=11;fontColor=default;" vertex="1" parent="ZNJKmo3YXMTwLJoMVDTs-132">
          <mxGeometry x="10" y="130" width="120" height="60" as="geometry" />
        </mxCell>
        <mxCell id="ZNJKmo3YXMTwLJoMVDTs-107" value="&amp;nbsp;andd&amp;nbsp;" style="edgeStyle=orthogonalEdgeStyle;shape=connector;rounded=0;orthogonalLoop=1;jettySize=auto;html=1;exitX=0;exitY=1;exitDx=0;exitDy=0;entryX=1;entryY=0.5;entryDx=0;entryDy=0;labelBackgroundColor=default;labelBorderColor=default;strokeColor=default;fontFamily=Helvetica;fontSize=11;fontColor=default;endArrow=classic;" edge="1" parent="ZNJKmo3YXMTwLJoMVDTs-132" source="ZNJKmo3YXMTwLJoMVDTs-113" target="ZNJKmo3YXMTwLJoMVDTs-117">
          <mxGeometry x="0.5385" relative="1" as="geometry">
            <Array as="points">
              <mxPoint x="180" y="160" />
            </Array>
            <mxPoint as="offset" />
          </mxGeometry>
        </mxCell>
        <mxCell id="ZNJKmo3YXMTwLJoMVDTs-118" value="ALU to OR&amp;nbsp;from RF&lt;br&gt;RF to receive aluout" style="rounded=1;whiteSpace=wrap;html=1;fontFamily=Helvetica;fontSize=11;fontColor=default;" vertex="1" parent="ZNJKmo3YXMTwLJoMVDTs-132">
          <mxGeometry x="10" y="200" width="120" height="60" as="geometry" />
        </mxCell>
        <mxCell id="ZNJKmo3YXMTwLJoMVDTs-108" value="&amp;nbsp;orr&amp;nbsp;" style="edgeStyle=orthogonalEdgeStyle;shape=connector;rounded=0;orthogonalLoop=1;jettySize=auto;html=1;exitX=0;exitY=1;exitDx=0;exitDy=0;entryX=1;entryY=0.5;entryDx=0;entryDy=0;labelBackgroundColor=default;labelBorderColor=default;strokeColor=default;fontFamily=Helvetica;fontSize=11;fontColor=default;endArrow=classic;" edge="1" parent="ZNJKmo3YXMTwLJoMVDTs-132" source="ZNJKmo3YXMTwLJoMVDTs-113" target="ZNJKmo3YXMTwLJoMVDTs-118">
          <mxGeometry x="0.7" relative="1" as="geometry">
            <Array as="points">
              <mxPoint x="180" y="230" />
            </Array>
            <mxPoint as="offset" />
          </mxGeometry>
        </mxCell>
        <mxCell id="ZNJKmo3YXMTwLJoMVDTs-119" value="RF to receive from memory" style="rounded=1;whiteSpace=wrap;html=1;fontFamily=Helvetica;fontSize=11;fontColor=default;" vertex="1" parent="ZNJKmo3YXMTwLJoMVDTs-132">
          <mxGeometry x="10" y="270" width="120" height="60" as="geometry" />
        </mxCell>
        <mxCell id="ZNJKmo3YXMTwLJoMVDTs-109" value="&amp;nbsp;ldr&amp;nbsp;" style="edgeStyle=orthogonalEdgeStyle;shape=connector;rounded=0;orthogonalLoop=1;jettySize=auto;html=1;exitX=0;exitY=1;exitDx=0;exitDy=0;entryX=1;entryY=0.5;entryDx=0;entryDy=0;labelBackgroundColor=default;labelBorderColor=default;strokeColor=default;fontFamily=Helvetica;fontSize=11;fontColor=default;endArrow=classic;" edge="1" parent="ZNJKmo3YXMTwLJoMVDTs-132" source="ZNJKmo3YXMTwLJoMVDTs-113" target="ZNJKmo3YXMTwLJoMVDTs-119">
          <mxGeometry x="0.7778" relative="1" as="geometry">
            <Array as="points">
              <mxPoint x="180" y="300" />
            </Array>
            <mxPoint as="offset" />
          </mxGeometry>
        </mxCell>
        <mxCell id="ZNJKmo3YXMTwLJoMVDTs-120" value="loads from RF into SSOP" style="rounded=1;whiteSpace=wrap;html=1;fontFamily=Helvetica;fontSize=11;fontColor=default;" vertex="1" parent="ZNJKmo3YXMTwLJoMVDTs-132">
          <mxGeometry x="270" y="60" width="120" height="60" as="geometry" />
        </mxCell>
        <mxCell id="ZNJKmo3YXMTwLJoMVDTs-110" value="&amp;nbsp;ssop&amp;nbsp;" style="edgeStyle=orthogonalEdgeStyle;shape=connector;rounded=0;orthogonalLoop=1;jettySize=auto;html=1;exitX=1;exitY=1;exitDx=0;exitDy=0;entryX=0;entryY=0.5;entryDx=0;entryDy=0;labelBackgroundColor=default;labelBorderColor=default;strokeColor=default;fontFamily=Helvetica;fontSize=11;fontColor=default;endArrow=classic;" edge="1" parent="ZNJKmo3YXMTwLJoMVDTs-132" source="ZNJKmo3YXMTwLJoMVDTs-113" target="ZNJKmo3YXMTwLJoMVDTs-120">
          <mxGeometry relative="1" as="geometry">
            <Array as="points">
              <mxPoint x="220" y="90" />
            </Array>
            <mxPoint as="offset" />
          </mxGeometry>
        </mxCell>
        <mxCell id="ZNJKmo3YXMTwLJoMVDTs-121" value="loads SIP into RF" style="rounded=1;whiteSpace=wrap;html=1;fontFamily=Helvetica;fontSize=11;fontColor=default;" vertex="1" parent="ZNJKmo3YXMTwLJoMVDTs-132">
          <mxGeometry x="270" y="130" width="120" height="60" as="geometry" />
        </mxCell>
        <mxCell id="ZNJKmo3YXMTwLJoMVDTs-111" value="&amp;nbsp;lsip&amp;nbsp;" style="edgeStyle=orthogonalEdgeStyle;shape=connector;rounded=0;orthogonalLoop=1;jettySize=auto;html=1;exitX=1;exitY=1;exitDx=0;exitDy=0;entryX=0;entryY=0.5;entryDx=0;entryDy=0;labelBackgroundColor=default;labelBorderColor=default;strokeColor=default;fontFamily=Helvetica;fontSize=11;fontColor=default;endArrow=classic;" edge="1" parent="ZNJKmo3YXMTwLJoMVDTs-132" source="ZNJKmo3YXMTwLJoMVDTs-113" target="ZNJKmo3YXMTwLJoMVDTs-121">
          <mxGeometry x="0.5385" relative="1" as="geometry">
            <Array as="points">
              <mxPoint x="220" y="160" />
            </Array>
            <mxPoint as="offset" />
          </mxGeometry>
        </mxCell>
        <mxCell id="ZNJKmo3YXMTwLJoMVDTs-122" value="write from RF to DPCR" style="rounded=1;whiteSpace=wrap;html=1;fontFamily=Helvetica;fontSize=11;fontColor=default;" vertex="1" parent="ZNJKmo3YXMTwLJoMVDTs-132">
          <mxGeometry x="270" y="200" width="120" height="60" as="geometry" />
        </mxCell>
        <mxCell id="ZNJKmo3YXMTwLJoMVDTs-123" value="PC counter set from RF" style="rounded=1;whiteSpace=wrap;html=1;fontFamily=Helvetica;fontSize=11;fontColor=default;" vertex="1" parent="ZNJKmo3YXMTwLJoMVDTs-132">
          <mxGeometry x="270" y="270" width="120" height="60" as="geometry" />
        </mxCell>
        <mxCell id="ZNJKmo3YXMTwLJoMVDTs-112" value="&amp;nbsp;jmp&amp;nbsp;" style="edgeStyle=orthogonalEdgeStyle;shape=connector;rounded=0;orthogonalLoop=1;jettySize=auto;html=1;exitX=1;exitY=1;exitDx=0;exitDy=0;entryX=0;entryY=0.5;entryDx=0;entryDy=0;labelBackgroundColor=default;labelBorderColor=default;strokeColor=default;fontFamily=Helvetica;fontSize=11;fontColor=default;endArrow=classic;" edge="1" parent="ZNJKmo3YXMTwLJoMVDTs-132" source="ZNJKmo3YXMTwLJoMVDTs-113" target="ZNJKmo3YXMTwLJoMVDTs-123">
          <mxGeometry x="0.7778" relative="1" as="geometry">
            <Array as="points">
              <mxPoint x="220" y="300" />
            </Array>
            <mxPoint as="offset" />
          </mxGeometry>
        </mxCell>
        <mxCell id="ZNJKmo3YXMTwLJoMVDTs-124" value="&amp;nbsp;datacall&amp;nbsp;" style="edgeStyle=orthogonalEdgeStyle;shape=connector;rounded=0;orthogonalLoop=1;jettySize=auto;html=1;exitX=1;exitY=1;exitDx=0;exitDy=0;entryX=0;entryY=0.5;entryDx=0;entryDy=0;labelBackgroundColor=default;labelBorderColor=default;strokeColor=default;fontFamily=Helvetica;fontSize=11;fontColor=default;endArrow=classic;" edge="1" parent="ZNJKmo3YXMTwLJoMVDTs-132" source="ZNJKmo3YXMTwLJoMVDTs-113" target="ZNJKmo3YXMTwLJoMVDTs-122">
          <mxGeometry x="0.6" relative="1" as="geometry">
            <Array as="points">
              <mxPoint x="220" y="230" />
            </Array>
            <mxPoint as="offset" />
          </mxGeometry>
        </mxCell>
        <mxCell id="ZNJKmo3YXMTwLJoMVDTs-148" style="edgeStyle=orthogonalEdgeStyle;shape=connector;rounded=0;orthogonalLoop=1;jettySize=auto;html=1;exitX=1;exitY=0.5;exitDx=0;exitDy=0;labelBackgroundColor=default;labelBorderColor=default;strokeColor=default;fontFamily=Helvetica;fontSize=11;fontColor=default;endArrow=classic;" edge="1" parent="1" source="ZNJKmo3YXMTwLJoMVDTs-137">
          <mxGeometry relative="1" as="geometry">
            <mxPoint x="380" y="460" as="targetPoint" />
            <Array as="points">
              <mxPoint x="380" y="440" />
            </Array>
          </mxGeometry>
        </mxCell>
        <mxCell id="ZNJKmo3YXMTwLJoMVDTs-149" style="edgeStyle=orthogonalEdgeStyle;shape=connector;rounded=0;orthogonalLoop=1;jettySize=auto;html=1;exitX=1;exitY=1;exitDx=0;exitDy=0;entryX=0.5;entryY=0;entryDx=0;entryDy=0;labelBackgroundColor=default;labelBorderColor=default;strokeColor=default;fontFamily=Helvetica;fontSize=11;fontColor=default;endArrow=classic;" edge="1" parent="1" source="ZNJKmo3YXMTwLJoMVDTs-137" target="ZNJKmo3YXMTwLJoMVDTs-66">
          <mxGeometry relative="1" as="geometry">
            <Array as="points">
              <mxPoint x="170" y="630" />
              <mxPoint x="360" y="630" />
            </Array>
          </mxGeometry>
        </mxCell>
        <mxCell id="ZNJKmo3YXMTwLJoMVDTs-151" style="edgeStyle=orthogonalEdgeStyle;shape=connector;rounded=0;orthogonalLoop=1;jettySize=auto;html=1;exitX=0;exitY=0.5;exitDx=0;exitDy=0;labelBackgroundColor=default;labelBorderColor=default;strokeColor=default;fontFamily=Helvetica;fontSize=11;fontColor=default;endArrow=classic;entryX=0.5;entryY=0;entryDx=0;entryDy=0;" edge="1" parent="1" source="ZNJKmo3YXMTwLJoMVDTs-137" target="ZNJKmo3YXMTwLJoMVDTs-54">
          <mxGeometry relative="1" as="geometry">
            <mxPoint x="-90" y="469.9999999999999" as="targetPoint" />
            <Array as="points">
              <mxPoint x="-60" y="440" />
            </Array>
          </mxGeometry>
        </mxCell>
        <mxCell id="ZNJKmo3YXMTwLJoMVDTs-152" style="edgeStyle=orthogonalEdgeStyle;shape=connector;rounded=0;orthogonalLoop=1;jettySize=auto;html=1;exitX=0;exitY=1;exitDx=0;exitDy=0;entryX=0.5;entryY=0;entryDx=0;entryDy=0;labelBackgroundColor=default;labelBorderColor=default;strokeColor=default;fontFamily=Helvetica;fontSize=11;fontColor=default;endArrow=classic;" edge="1" parent="1" source="ZNJKmo3YXMTwLJoMVDTs-137" target="ZNJKmo3YXMTwLJoMVDTs-103">
          <mxGeometry relative="1" as="geometry">
            <Array as="points">
              <mxPoint x="150" y="460" />
              <mxPoint x="150" y="690" />
              <mxPoint x="-60" y="690" />
            </Array>
          </mxGeometry>
        </mxCell>
        <mxCell id="ZNJKmo3YXMTwLJoMVDTs-137" value="Addressing Mode" style="rhombus;whiteSpace=wrap;html=1;labelBackgroundColor=none;labelBorderColor=none;fontFamily=Helvetica;fontSize=11;" vertex="1" parent="1">
          <mxGeometry x="110" y="400" width="80" height="80" as="geometry" />
        </mxCell>
        <mxCell id="ZNJKmo3YXMTwLJoMVDTs-146" value="" style="group" vertex="1" connectable="0" parent="1">
          <mxGeometry x="-380" y="150" width="990" height="210" as="geometry" />
        </mxCell>
        <mxCell id="ZNJKmo3YXMTwLJoMVDTs-142" value="" style="group" vertex="1" connectable="0" parent="ZNJKmo3YXMTwLJoMVDTs-146">
          <mxGeometry x="560" y="40" width="400" height="170" as="geometry" />
        </mxCell>
        <mxCell id="ZNJKmo3YXMTwLJoMVDTs-28" value="" style="rounded=1;whiteSpace=wrap;html=1;fontFamily=Helvetica;fontSize=11;fillColor=#d5e8d4;strokeColor=#82b366;" vertex="1" parent="ZNJKmo3YXMTwLJoMVDTs-142">
          <mxGeometry x="10" y="60" width="350" height="110" as="geometry" />
        </mxCell>
        <mxCell id="ZNJKmo3YXMTwLJoMVDTs-30" value="Set all reset flags LOW&lt;br&gt;&lt;br&gt;Set relevant write flags HIGH" style="rounded=1;whiteSpace=wrap;html=1;fontFamily=Helvetica;fontSize=11;fontColor=default;" vertex="1" parent="ZNJKmo3YXMTwLJoMVDTs-142">
          <mxGeometry x="20" y="90" width="120" height="70" as="geometry" />
        </mxCell>
        <mxCell id="ZNJKmo3YXMTwLJoMVDTs-34" value="T0" style="text;html=1;strokeColor=none;fillColor=none;align=center;verticalAlign=middle;whiteSpace=wrap;rounded=0;fontSize=11;fontFamily=Helvetica;fontColor=default;" vertex="1" parent="ZNJKmo3YXMTwLJoMVDTs-142">
          <mxGeometry y="60" width="60" height="30" as="geometry" />
        </mxCell>
        <mxCell id="ZNJKmo3YXMTwLJoMVDTs-35" value="Increment PC&lt;br&gt;read from PM as pointed to by PC" style="rounded=1;whiteSpace=wrap;html=1;fontFamily=Helvetica;fontSize=11;fontColor=default;" vertex="1" parent="ZNJKmo3YXMTwLJoMVDTs-142">
          <mxGeometry x="160" y="90" width="190" height="70" as="geometry" />
        </mxCell>
        <mxCell id="ZNJKmo3YXMTwLJoMVDTs-36" style="edgeStyle=orthogonalEdgeStyle;shape=connector;rounded=0;orthogonalLoop=1;jettySize=auto;html=1;labelBackgroundColor=default;labelBorderColor=default;strokeColor=default;fontFamily=Helvetica;fontSize=11;fontColor=default;endArrow=classic;" edge="1" parent="ZNJKmo3YXMTwLJoMVDTs-142" source="ZNJKmo3YXMTwLJoMVDTs-30" target="ZNJKmo3YXMTwLJoMVDTs-35">
          <mxGeometry relative="1" as="geometry" />
        </mxCell>
        <mxCell id="ZNJKmo3YXMTwLJoMVDTs-1" value="" style="rounded=1;whiteSpace=wrap;html=1;fillColor=#f5f5f5;fontColor=#333333;strokeColor=#666666;" vertex="1" parent="ZNJKmo3YXMTwLJoMVDTs-146">
          <mxGeometry x="110" y="110" width="310" height="100" as="geometry" />
        </mxCell>
        <mxCell id="ZNJKmo3YXMTwLJoMVDTs-7" value="Set reset flags high" style="rounded=1;whiteSpace=wrap;html=1;fontFamily=Helvetica;fontSize=11;fontColor=default;" vertex="1" parent="ZNJKmo3YXMTwLJoMVDTs-146">
          <mxGeometry x="140" y="130" width="120" height="60" as="geometry" />
        </mxCell>
        <mxCell id="ZNJKmo3YXMTwLJoMVDTs-26" style="shape=connector;rounded=0;orthogonalLoop=1;jettySize=auto;html=1;exitX=0.5;exitY=0;exitDx=0;exitDy=0;entryX=0.5;entryY=1;entryDx=0;entryDy=0;labelBackgroundColor=default;labelBorderColor=default;strokeColor=default;fontFamily=Helvetica;fontSize=11;fontColor=default;endArrow=classic;" edge="1" parent="ZNJKmo3YXMTwLJoMVDTs-146" source="ZNJKmo3YXMTwLJoMVDTs-8" target="ZNJKmo3YXMTwLJoMVDTs-1">
          <mxGeometry relative="1" as="geometry">
            <Array as="points">
              <mxPoint x="340" y="195" />
              <mxPoint x="265" y="195" />
            </Array>
          </mxGeometry>
        </mxCell>
        <mxCell id="ZNJKmo3YXMTwLJoMVDTs-8" value="Set write flags low" style="rounded=1;whiteSpace=wrap;html=1;fontFamily=Helvetica;fontSize=11;fontColor=default;" vertex="1" parent="ZNJKmo3YXMTwLJoMVDTs-146">
          <mxGeometry x="280" y="130" width="120" height="60" as="geometry" />
        </mxCell>
        <mxCell id="ZNJKmo3YXMTwLJoMVDTs-11" style="edgeStyle=none;shape=connector;rounded=0;orthogonalLoop=1;jettySize=auto;html=1;labelBackgroundColor=default;labelBorderColor=default;strokeColor=default;fontFamily=Helvetica;fontSize=11;fontColor=default;endArrow=classic;" edge="1" parent="ZNJKmo3YXMTwLJoMVDTs-146" source="ZNJKmo3YXMTwLJoMVDTs-7" target="ZNJKmo3YXMTwLJoMVDTs-8">
          <mxGeometry relative="1" as="geometry" />
        </mxCell>
        <mxCell id="ZNJKmo3YXMTwLJoMVDTs-27" value="INIT" style="text;html=1;strokeColor=none;fillColor=none;align=center;verticalAlign=middle;whiteSpace=wrap;rounded=0;fontSize=11;fontFamily=Helvetica;fontColor=default;" vertex="1" parent="ZNJKmo3YXMTwLJoMVDTs-146">
          <mxGeometry x="100" y="110" width="60" height="30" as="geometry" />
        </mxCell>
        <mxCell id="ZNJKmo3YXMTwLJoMVDTs-2" value="Reset" style="rhombus;whiteSpace=wrap;html=1;" vertex="1" parent="ZNJKmo3YXMTwLJoMVDTs-146">
          <mxGeometry x="420" y="50" width="80" height="80" as="geometry" />
        </mxCell>
        <mxCell id="ZNJKmo3YXMTwLJoMVDTs-29" value="&amp;nbsp;Reset = 0&amp;nbsp;" style="edgeStyle=orthogonalEdgeStyle;shape=connector;rounded=0;orthogonalLoop=1;jettySize=auto;html=1;entryX=0;entryY=0.5;entryDx=0;entryDy=0;labelBackgroundColor=default;labelBorderColor=default;strokeColor=default;fontFamily=Helvetica;fontSize=11;fontColor=default;endArrow=classic;" edge="1" parent="ZNJKmo3YXMTwLJoMVDTs-146" source="ZNJKmo3YXMTwLJoMVDTs-2" target="ZNJKmo3YXMTwLJoMVDTs-28">
          <mxGeometry relative="1" as="geometry" />
        </mxCell>
        <mxCell id="ZNJKmo3YXMTwLJoMVDTs-5" value="&amp;nbsp;Reset = 1&amp;nbsp;" style="rounded=0;orthogonalLoop=1;jettySize=auto;html=1;labelBorderColor=default;entryX=0.5;entryY=0;entryDx=0;entryDy=0;exitX=0;exitY=0.5;exitDx=0;exitDy=0;edgeStyle=orthogonalEdgeStyle;" edge="1" parent="ZNJKmo3YXMTwLJoMVDTs-146" source="ZNJKmo3YXMTwLJoMVDTs-2" target="ZNJKmo3YXMTwLJoMVDTs-1">
          <mxGeometry relative="1" as="geometry" />
        </mxCell>
        <mxCell id="ZNJKmo3YXMTwLJoMVDTs-145" style="edgeStyle=orthogonalEdgeStyle;shape=connector;rounded=0;orthogonalLoop=1;jettySize=auto;html=1;exitX=0.5;exitY=1;exitDx=0;exitDy=0;entryX=0.5;entryY=1;entryDx=0;entryDy=0;labelBackgroundColor=default;labelBorderColor=default;strokeColor=default;fontFamily=Helvetica;fontSize=11;fontColor=default;endArrow=classic;" edge="1" parent="ZNJKmo3YXMTwLJoMVDTs-146" source="ZNJKmo3YXMTwLJoMVDTs-1" target="ZNJKmo3YXMTwLJoMVDTs-2">
          <mxGeometry relative="1" as="geometry" />
        </mxCell>
        <mxCell id="ZNJKmo3YXMTwLJoMVDTs-31" value="rising_edge(Clock) or sensitivity(Reset)" style="rounded=0;whiteSpace=wrap;html=1;fontFamily=Helvetica;fontSize=11;fontColor=default;" vertex="1" parent="ZNJKmo3YXMTwLJoMVDTs-146">
          <mxGeometry x="110" width="120" height="60" as="geometry" />
        </mxCell>
        <mxCell id="ZNJKmo3YXMTwLJoMVDTs-33" style="edgeStyle=orthogonalEdgeStyle;shape=connector;rounded=0;orthogonalLoop=1;jettySize=auto;html=1;labelBackgroundColor=default;labelBorderColor=default;strokeColor=default;fontFamily=Helvetica;fontSize=11;fontColor=default;endArrow=classic;entryX=0.5;entryY=0;entryDx=0;entryDy=0;" edge="1" parent="ZNJKmo3YXMTwLJoMVDTs-146" source="ZNJKmo3YXMTwLJoMVDTs-31" target="ZNJKmo3YXMTwLJoMVDTs-2">
          <mxGeometry relative="1" as="geometry">
            <Array as="points">
              <mxPoint x="460" y="30" />
            </Array>
          </mxGeometry>
        </mxCell>
      </root>
    </mxGraphModel>
  </diagram>
  <diagram id="pRwheCxlda47EqTYLnW6" name="Page-2">
    <mxGraphModel dx="1036" dy="654" grid="1" gridSize="10" guides="1" tooltips="1" connect="1" arrows="1" fold="1" page="1" pageScale="1" pageWidth="850" pageHeight="1100" math="0" shadow="0">
      <root>
        <mxCell id="0" />
        <mxCell id="1" parent="0" />
      </root>
    </mxGraphModel>
  </diagram>
</mxfile>
